<svg width="32" height="32" viewBox="0 0 200 200" fill="none" xmlns="http://www.w3.org/2000/svg">
    <rect width="200" height="200" fill="#1a1a1a"/>
    <path d="M100 20C100 20 60 35 40 70C20 105 25 140 40 165C55 190 85 195 100 195C115 195 145 190 160 165C175 140 180 105 160 70C140 35 100 20 100 20Z" stroke="#14b8a6" stroke-width="4" fill="none"/>
    <rect x="85" y="90" width="30" height="20" stroke="#14b8a6" stroke-width="2" fill="none" rx="2"/>
    <line x1="100" y1="90" x2="100" y2="70" stroke="#14b8a6" stroke-width="2"/>
    <circle cx="100" cy="70" r="3" fill="#14b8a6"/>
    <line x1="85" y1="70" x2="85" y2="55" stroke="#14b8a6" stroke-width="2"/>
    <circle cx="85" cy="55" r="3" fill="#14b8a6"/>
    <line x1="115" y1="70" x2="115" y2="55" stroke="#14b8a6" stroke-width="2"/>
    <circle cx="115" cy="55" r="3" fill="#14b8a6"/>
    <line x1="85" y1="95" x2="60" y2="95" stroke="#14b8a6" stroke-width="2"/>
    <circle cx="60" cy="95" r="3" fill="#14b8a6"/>
    <line x1="70" y1="95" x2="70" y2="80" stroke="#14b8a6" stroke-width="2"/>
    <circle cx="70" cy="80" r="3" fill="#14b8a6"/>
    <line x1="115" y1="95" x2="140" y2="95" stroke="#14b8a6" stroke-width="2"/>
    <circle cx="140" cy="95" r="3" fill="#14b8a6"/>
    <line x1="130" y1="95" x2="130" y2="80" stroke="#14b8a6" stroke-width="2"/>
    <circle cx="130" cy="80" r="3" fill="#14b8a6"/>
    <line x1="100" y1="110" x2="100" y2="130" stroke="#14b8a6" stroke-width="2"/>
    <circle cx="100" cy="130" r="3" fill="#14b8a6"/>
    <line x1="85" y1="110" x2="75" y2="125" stroke="#14b8a6" stroke-width="2"/>
    <circle cx="75" cy="125" r="3" fill="#14b8a6"/>
    <line x1="115" y1="110" x2="125" y2="125" stroke="#14b8a6" stroke-width="2"/>
    <circle cx="125" cy="125" r="3" fill="#14b8a6"/>
    <line x1="70" y1="95" x2="70" y2="110" stroke="#14b8a6" stroke-width="2"/>
    <circle cx="70" cy="110" r="3" fill="#14b8a6"/>
    <line x1="130" y1="95" x2="130" y2="110" stroke="#14b8a6" stroke-width="2"/>
    <circle cx="130" cy="110" r="3" fill="#14b8a6"/>
  </svg>